<?xml version="1.0" encoding="UTF-8" standalone="no"?><svg xmlns="http://www.w3.org/2000/svg" xmlns:xlink="http://www.w3.org/1999/xlink" contentStyleType="text/css" height="1065px" preserveAspectRatio="none" style="width:4512px;height:1065px;background:#FFFFFF;" version="1.1" viewBox="0 0 4512 1065" width="4512px" zoomAndPan="magnify"><defs/><g><rect fill="none" height="27.6094" id="_title" style="stroke:none;stroke-width:1.0;" width="367" x="2065.5" y="5"/><text fill="#000000" font-family="sans-serif" font-size="14" font-weight="bold" lengthAdjust="spacing" textLength="357" x="2070.5" y="24.5332">Автоматизированное рабочее место стоматолога</text><!--MD5=[2d9052ad45e89a2ea0500c28a1c3059e]
cluster Приложение--><g id="cluster_Приложение"><rect fill="none" height="734" rx="2.5" ry="2.5" style="stroke:#181818;stroke-width:1.0;" width="4349" x="157" y="66.3594"/><text fill="#000000" font-family="sans-serif" font-size="14" font-weight="bold" lengthAdjust="spacing" textLength="91" x="2286" y="82.8926">Приложение</text></g><g id="elem_1"><ellipse cx="305.1476" cy="767.2889" fill="#F1F1F1" rx="72.6476" ry="16.9295" style="stroke:#181818;stroke-width:0.5;"/><text fill="#000000" font-family="sans-serif" font-size="14" lengthAdjust="spacing" textLength="95" x="254.6476" y="771.8055">"Регистрация"</text></g><g id="elem_2"><ellipse cx="715.1676" cy="751.5929" fill="#F1F1F1" rx="151.6676" ry="32.7335" style="stroke:#181818;stroke-width:0.5;"/><text fill="#000000" font-family="sans-serif" font-size="14" lengthAdjust="spacing" textLength="272" x="579.1676" y="755.3214">"Указание личной информации в форме"</text></g><g id="elem_3"><ellipse cx="714.934" cy="659.3462" fill="#F1F1F1" rx="110.434" ry="24.4868" style="stroke:#181818;stroke-width:0.5;"/><text fill="#000000" font-family="sans-serif" font-size="14" lengthAdjust="spacing" textLength="184" x="622.934" y="663.0747">"Указание логина и пароля"</text></g><g id="elem_5"><ellipse cx="305.0624" cy="685.3111" fill="#F1F1F1" rx="39.0624" ry="15.4517" style="stroke:#181818;stroke-width:0.5;"/><text fill="#000000" font-family="sans-serif" font-size="14" lengthAdjust="spacing" textLength="39" x="285.5624" y="689.0396">"вход"</text></g><g id="elem_6"><ellipse cx="305.1812" cy="582.3248" fill="#F1F1F1" rx="46.1812" ry="15.4655" style="stroke:#181818;stroke-width:0.5;"/><text fill="#000000" font-family="sans-serif" font-size="14" lengthAdjust="spacing" textLength="49" x="279.2471" y="586.4673">"выход"</text></g><g id="elem_1spesMain"><ellipse cx="1100.1279" cy="134.185" fill="#F1F1F1" rx="119.6279" ry="26.3256" style="stroke:#181818;stroke-width:0.5;"/><text fill="#000000" font-family="sans-serif" font-size="14" lengthAdjust="spacing" textLength="204" x="998.1279" y="137.9135">"личный кабинет стоматолога"</text></g><g id="elem_1.1"><ellipse cx="1494.7363" cy="219.6066" fill="#F1F1F1" rx="76.7363" ry="17.7473" style="stroke:#181818;stroke-width:0.5;"/><text fill="#000000" font-family="sans-serif" font-size="14" lengthAdjust="spacing" textLength="106" x="1439.2006" y="224.0148">"Дневник врача"</text></g><g id="elem_1.2"><ellipse cx="1494.508" cy="134.461" fill="#F1F1F1" rx="143.508" ry="31.1016" style="stroke:#181818;stroke-width:0.5;"/><text fill="#000000" font-family="sans-serif" font-size="14" lengthAdjust="spacing" textLength="146" x="1421.508" y="129.3848">"личная информация,</text><text fill="#000000" font-family="sans-serif" font-size="14" lengthAdjust="spacing" textLength="203" x="1395.008" y="146.9942">возможность редактирования"</text></g><g id="elem_1.1.1"><ellipse cx="1940.1163" cy="219.4826" fill="#F1F1F1" rx="86.1163" ry="19.6233" style="stroke:#181818;stroke-width:0.5;"/><text fill="#000000" font-family="sans-serif" font-size="14" lengthAdjust="spacing" textLength="129" x="1875.6163" y="223.2111">"список пациентов"</text></g><g id="elem_1.1.1.1"><ellipse cx="2541.8275" cy="345.4249" fill="#F1F1F1" rx="270.8275" ry="56.5655" style="stroke:#181818;stroke-width:0.5;"/><text fill="#000000" font-family="sans-serif" font-size="14" lengthAdjust="spacing" textLength="175" x="2454.3275" y="331.544">"информация о пациенте:</text><text fill="#000000" font-family="sans-serif" font-size="14" lengthAdjust="spacing" textLength="366" x="2358.8275" y="349.1534">личные данные, текущие записи, прошлые посещения,</text><text fill="#000000" font-family="sans-serif" font-size="14" lengthAdjust="spacing" textLength="454" x="2314.8275" y="366.7628">зубная формула, данные об аллергических заболеваниях пациента"</text></g><g id="elem_1.1.1.2"><ellipse cx="2541.9505" cy="219.5495" fill="#F1F1F1" rx="156.4505" ry="33.6901" style="stroke:#181818;stroke-width:0.5;"/><text fill="#000000" font-family="sans-serif" font-size="14" lengthAdjust="spacing" textLength="282" x="2400.9505" y="223.278">"создание выписки из медицинской карты"</text></g><g id="elem_1.1.1.1.1"><ellipse cx="3194.9373" cy="597.5468" fill="#F1F1F1" rx="183.9373" ry="39.1875" style="stroke:#181818;stroke-width:0.5;"/><text fill="#000000" font-family="sans-serif" font-size="14" lengthAdjust="spacing" textLength="339" x="3025.4373" y="601.2754">"редактирование личной информации о пациенте"</text></g><g id="elem_1.1.1.1.2"><ellipse cx="3194.7605" cy="467.2115" fill="#F1F1F1" rx="264.7605" ry="55.3521" style="stroke:#181818;stroke-width:0.5;"/><text fill="#000000" font-family="sans-serif" font-size="14" lengthAdjust="spacing" textLength="197" x="3096.2605" y="453.3306">"Возможность записи к врачу,</text><text fill="#000000" font-family="sans-serif" font-size="14" lengthAdjust="spacing" textLength="344" x="3024.7605" y="470.94">либо формирования направлений на исследования</text><text fill="#000000" font-family="sans-serif" font-size="14" lengthAdjust="spacing" textLength="436" x="2978.7605" y="488.5494">и дополнительные врачебные консультации узких специалистов"</text></g><g id="elem_1.1.1.1.3"><ellipse cx="3195.122" cy="345.2838" fill="#F1F1F1" rx="142.622" ry="30.9244" style="stroke:#181818;stroke-width:0.5;"/><text fill="#000000" font-family="sans-serif" font-size="14" lengthAdjust="spacing" textLength="253" x="3068.622" y="349.0123">"Возможность отмены записи к врачу"</text></g><g id="elem_1.1.1.1.4"><ellipse cx="3195.1999" cy="250.2994" fill="#F1F1F1" rx="132.6999" ry="28.94" style="stroke:#181818;stroke-width:0.5;"/><text fill="#000000" font-family="sans-serif" font-size="14" lengthAdjust="spacing" textLength="232" x="3079.1999" y="254.0279">"список всех посещений пациента"</text></g><g id="elem_1.1.1.1.4.1"><ellipse cx="3663.1476" cy="250.1889" fill="#F1F1F1" rx="142.1476" ry="30.8295" style="stroke:#181818;stroke-width:0.5;"/><text fill="#000000" font-family="sans-serif" font-size="14" lengthAdjust="spacing" textLength="252" x="3537.1476" y="253.9174">"определенное посещение пациента"</text></g><g id="elem_1.1.1.1.4.1.1"><ellipse cx="4205.9743" cy="387.5542" fill="#F1F1F1" rx="283.9743" ry="59.1949" style="stroke:#181818;stroke-width:0.5;"/><text fill="#000000" font-family="sans-serif" font-size="14" lengthAdjust="spacing" textLength="481" x="3965.4743" y="373.6734">"Возможность фиксирования результатов осмотра пациента и лечения:</text><text fill="#000000" font-family="sans-serif" font-size="14" lengthAdjust="spacing" textLength="413" x="4001.4743" y="391.2828">диагноз, данные о жалобах, об анамнезе результаты осмотра</text><text fill="#000000" font-family="sans-serif" font-size="14" lengthAdjust="spacing" textLength="484" x="3963.9743" y="408.8921">, историю проведенных исследований УЗИ, и т.п., назначения пациенту"</text></g><g id="elem_1.1.1.1.4.1.2"><ellipse cx="4205.9199" cy="250.2434" fill="#F1F1F1" rx="202.4199" ry="42.884" style="stroke:#181818;stroke-width:0.5;"/><text fill="#000000" font-family="sans-serif" font-size="14" lengthAdjust="spacing" textLength="377" x="4017.4199" y="253.9719">"данные о статусе, трудозатратах выполненной работы"</text></g><g id="elem_1.1.1.1.4.1.3"><ellipse cx="4206.1306" cy="137.5855" fill="#F1F1F1" rx="164.1306" ry="35.2261" style="stroke:#181818;stroke-width:0.5;"/><text fill="#000000" font-family="sans-serif" font-size="14" lengthAdjust="spacing" textLength="298" x="4057.1306" y="141.314">"создание мед. карты в формате Word/Excel"</text></g><g id="elem_2menedMain"><ellipse cx="1099.9736" cy="629.3541" fill="#F1F1F1" rx="115.4736" ry="25.4947" style="stroke:#181818;stroke-width:0.5;"/><text fill="#000000" font-family="sans-serif" font-size="14" lengthAdjust="spacing" textLength="195" x="1002.4736" y="633.0826">"личный кабинет менеджера"</text></g><g id="elem_2mened"><ellipse cx="1494.6163" cy="629.4826" fill="#F1F1F1" rx="86.1163" ry="19.6233" style="stroke:#181818;stroke-width:0.5;"/><text fill="#000000" font-family="sans-serif" font-size="14" lengthAdjust="spacing" textLength="129" x="1430.1163" y="633.2111">"список пациентов"</text></g><g id="elem_2.1"><ellipse cx="1939.7712" cy="629.5136" fill="#F1F1F1" rx="213.7712" ry="45.1542" style="stroke:#181818;stroke-width:0.5;"/><text fill="#000000" font-family="sans-serif" font-size="14" lengthAdjust="spacing" textLength="175" x="1852.2712" y="624.4374">"информация о пациенте:</text><text fill="#000000" font-family="sans-serif" font-size="14" lengthAdjust="spacing" textLength="367" x="1758.2712" y="642.0468">личные данные, текущие записи, прошлые посещения"</text></g><g id="elem_2.1.1"><ellipse cx="2541.9373" cy="647.5468" fill="#F1F1F1" rx="183.9373" ry="39.1875" style="stroke:#181818;stroke-width:0.5;"/><text fill="#000000" font-family="sans-serif" font-size="14" lengthAdjust="spacing" textLength="339" x="2372.4373" y="651.2754">"редактирование личной информации о пациенте"</text></g><g id="elem_2.1.2"><ellipse cx="2541.7605" cy="517.2115" fill="#F1F1F1" rx="264.7605" ry="55.3521" style="stroke:#181818;stroke-width:0.5;"/><text fill="#000000" font-family="sans-serif" font-size="14" lengthAdjust="spacing" textLength="197" x="2443.2605" y="503.3306">"Возможность записи к врачу,</text><text fill="#000000" font-family="sans-serif" font-size="14" lengthAdjust="spacing" textLength="344" x="2371.7605" y="520.94">либо формирования направлений на исследования</text><text fill="#000000" font-family="sans-serif" font-size="14" lengthAdjust="spacing" textLength="436" x="2325.7605" y="538.5494">и дополнительные врачебные консультации узких специалистов"</text></g><g id="elem_4clientMain"><ellipse cx="1099.9418" cy="408.3477" fill="#F1F1F1" rx="105.4418" ry="23.4884" style="stroke:#181818;stroke-width:0.5;"/><text fill="#000000" font-family="sans-serif" font-size="14" lengthAdjust="spacing" textLength="173" x="1013.4418" y="412.0762">"личный кабинет клиента"</text></g><g id="elem_4.1"><ellipse cx="1494.4721" cy="408.3538" fill="#F1F1F1" rx="145.4721" ry="31.4944" style="stroke:#181818;stroke-width:0.5;"/><text fill="#000000" font-family="sans-serif" font-size="14" lengthAdjust="spacing" textLength="259" x="1364.9721" y="412.0823">"редактирование личной информации"</text></g><g id="elem_4.2"><ellipse cx="1494.6716" cy="314.3937" fill="#F1F1F1" rx="125.6716" ry="27.5343" style="stroke:#181818;stroke-width:0.5;"/><text fill="#000000" font-family="sans-serif" font-size="14" lengthAdjust="spacing" textLength="217" x="1386.1716" y="318.1222">"все текущие и прошлые записи"</text></g><g id="elem_4.2.1"><ellipse cx="1939.7802" cy="314.4154" fill="#F1F1F1" rx="98.2802" ry="22.056" style="stroke:#181818;stroke-width:0.5;"/><text fill="#000000" font-family="sans-serif" font-size="14" lengthAdjust="spacing" textLength="157" x="1861.2802" y="318.1439">"информация о записи"</text></g><g id="elem_4.3"><ellipse cx="1494.5067" cy="511.3607" fill="#F1F1F1" rx="170.5067" ry="36.5013" style="stroke:#181818;stroke-width:0.5;"/><text fill="#000000" font-family="sans-serif" font-size="14" lengthAdjust="spacing" textLength="273" x="1358.0067" y="506.2845">"последняя выписка медицинской карты,</text><text fill="#000000" font-family="sans-serif" font-size="14" lengthAdjust="spacing" textLength="219" x="1387.0067" y="523.8939">если есть, возможность скачать"</text></g><g id="elem_3adminMain"><ellipse cx="305.2297" cy="478.2053" fill="#F1F1F1" rx="132.2297" ry="28.8459" style="stroke:#181818;stroke-width:0.5;"/><text fill="#000000" font-family="sans-serif" font-size="14" lengthAdjust="spacing" textLength="231" x="189.7297" y="481.9338">"личный кабинет администратора"</text></g><g id="elem_3.1"><ellipse cx="714.9781" cy="317.255" fill="#F1F1F1" rx="109.9781" ry="24.3956" style="stroke:#181818;stroke-width:0.5;"/><text fill="#000000" font-family="sans-serif" font-size="14" lengthAdjust="spacing" textLength="183" x="623.4781" y="320.9835">"список всех специалистов"</text></g><g id="elem_3.2"><ellipse cx="715.008" cy="568.461" fill="#F1F1F1" rx="143.508" ry="31.1016" style="stroke:#181818;stroke-width:0.5;"/><text fill="#000000" font-family="sans-serif" font-size="14" lengthAdjust="spacing" textLength="146" x="642.008" y="563.3848">"личная информация,</text><text fill="#000000" font-family="sans-serif" font-size="14" lengthAdjust="spacing" textLength="203" x="615.508" y="580.9942">возможность редактирования"</text></g><g id="elem_3.3"><ellipse cx="714.9905" cy="478.2575" fill="#F1F1F1" rx="104.9905" ry="23.3981" style="stroke:#181818;stroke-width:0.5;"/><text fill="#000000" font-family="sans-serif" font-size="14" lengthAdjust="spacing" textLength="172" x="628.9905" y="481.986">"список всех менеджеров"</text></g><g id="elem_3.4"><ellipse cx="715.1904" cy="398.2974" fill="#F1F1F1" rx="95.1904" ry="21.4381" style="stroke:#181818;stroke-width:0.5;"/><text fill="#000000" font-family="sans-serif" font-size="14" lengthAdjust="spacing" textLength="150" x="640.1904" y="402.026">"список всех клиентов"</text></g><g id="elem_mainPage"><ellipse cx="305.1163" cy="366.4826" fill="#F1F1F1" rx="86.1163" ry="19.6233" style="stroke:#181818;stroke-width:0.5;"/><text fill="#000000" font-family="sans-serif" font-size="14" lengthAdjust="spacing" textLength="129" x="240.6163" y="370.2111">"главная страница"</text></g><g id="elem_mainPage.1"><ellipse cx="714.9339" cy="232.4462" fill="#F1F1F1" rx="115.9339" ry="25.5868" style="stroke:#181818;stroke-width:0.5;"/><text fill="#000000" font-family="sans-serif" font-size="14" lengthAdjust="spacing" textLength="196" x="616.9339" y="236.1747">"информация о поликлинике"</text></g><g id="elem_mainPage.2"><ellipse cx="715.2468" cy="137.5087" fill="#F1F1F1" rx="161.2468" ry="34.6494" style="stroke:#181818;stroke-width:0.5;"/><text fill="#000000" font-family="sans-serif" font-size="14" lengthAdjust="spacing" textLength="292" x="569.2468" y="141.2373">"список стоматологов для записи на прием"</text></g><g id="elem_mainPage.2.1"><ellipse cx="1099.8061" cy="249.1662" fill="#F1F1F1" rx="162.8061" ry="52.8068" style="stroke:#181818;stroke-width:0.5;"/><text fill="#000000" font-family="sans-serif" font-size="14" lengthAdjust="spacing" textLength="195" x="1002.3061" y="226.4807">"информация о стоматологе,</text><text fill="#000000" font-family="sans-serif" font-size="14" lengthAdjust="spacing" textLength="210" x="996.8061" y="244.09">все свободные и занятые даты,</text><text fill="#000000" font-family="sans-serif" font-size="14" lengthAdjust="spacing" textLength="139" x="1032.3061" y="261.6994">возможность записи,</text><text fill="#000000" font-family="sans-serif" font-size="14" lengthAdjust="spacing" textLength="181" x="1011.3061" y="279.3088">если пользователь клиент"</text></g><!--MD5=[a1d9ff28796c31a0ae692d0440a1fbd8]
entity gos--><g id="elem_gos"><ellipse cx="58" cy="980.8594" fill="#F1F1F1" rx="8" ry="8" style="stroke:#181818;stroke-width:0.5;"/><path d="M58,988.8594 L58,1015.8594 M45,996.8594 L71,996.8594 M58,1015.8594 L45,1030.8594 M58,1015.8594 L71,1030.8594 " fill="none" style="stroke:#181818;stroke-width:0.5;"/><text fill="#000000" font-family="sans-serif" font-size="14" lengthAdjust="spacing" textLength="38" x="39" y="1046.8926">Гость</text></g><!--MD5=[8fc3522a43f8c7199df5e09e5bb0188e]
entity user--><g id="elem_user"><ellipse cx="715" cy="827.8594" fill="#F1F1F1" rx="8" ry="8" style="stroke:#181818;stroke-width:0.5;"/><path d="M715,835.8594 L715,862.8594 M702,843.8594 L728,843.8594 M715,862.8594 L702,877.8594 M715,862.8594 L728,877.8594 " fill="none" style="stroke:#181818;stroke-width:0.5;"/><text fill="#000000" font-family="sans-serif" font-size="14" lengthAdjust="spacing" textLength="47" x="691.5" y="893.8926">Клиент</text></g><!--MD5=[79a439086b036a57b90a01d7b2f8bbd1]
entity admin--><g id="elem_admin"><ellipse cx="58" cy="481.8594" fill="#F1F1F1" rx="8" ry="8" style="stroke:#181818;stroke-width:0.5;"/><path d="M58,489.8594 L58,516.8594 M45,497.8594 L71,497.8594 M58,516.8594 L45,531.8594 M58,516.8594 L71,531.8594 " fill="none" style="stroke:#181818;stroke-width:0.5;"/><text fill="#000000" font-family="sans-serif" font-size="14" lengthAdjust="spacing" textLength="104" x="6" y="547.8926">Администратор</text></g><!--MD5=[702fbb7bd4cd556b9bc76d7a84e84fca]
entity mened--><g id="elem_mened"><ellipse cx="58" cy="645.8594" fill="#F1F1F1" rx="8" ry="8" style="stroke:#181818;stroke-width:0.5;"/><path d="M58,653.8594 L58,680.8594 M45,661.8594 L71,661.8594 M58,680.8594 L45,695.8594 M58,680.8594 L71,695.8594 " fill="none" style="stroke:#181818;stroke-width:0.5;"/><text fill="#000000" font-family="sans-serif" font-size="14" lengthAdjust="spacing" textLength="68" x="22" y="711.8926">Менеджер</text></g><!--MD5=[b34ee1448f0637406d0f40d3d8435360]
entity spes--><g id="elem_spes"><ellipse cx="58" cy="317.8594" fill="#F1F1F1" rx="8" ry="8" style="stroke:#181818;stroke-width:0.5;"/><path d="M58,325.8594 L58,352.8594 M45,333.8594 L71,333.8594 M58,352.8594 L45,367.8594 M58,352.8594 L71,367.8594 " fill="none" style="stroke:#181818;stroke-width:0.5;"/><text fill="#000000" font-family="sans-serif" font-size="14" lengthAdjust="spacing" textLength="79" x="18.5" y="383.8926">Стоматолог</text></g><!--MD5=[42f74c808253714e7fc526c71fa43dae]
link gos to 1--><g id="link_gos_1"><path d="M77.15,1015.7394 C94.62,1018.9394 121.22,1021.0694 141,1010.3594 C230.84,961.7394 280.12,839.5594 297.12,789.3894 " fill="none" id="gos-to-1" style="stroke:#181818;stroke-width:1.0;"/><polygon fill="#181818" points="298.76,784.4794,292.1126,791.7466,297.1746,789.2214,299.6998,794.2833,298.76,784.4794" style="stroke:#181818;stroke-width:1.0;"/></g><!--MD5=[e8025d7c4170503fac50955484bb6d0f]
link 1 to user--><g id="link_1_user"><path d="M322.92,784.2094 C350.35,810.1894 407.49,858.9694 467,877.3594 C543.72,901.0694 639.91,880.0894 686.36,866.9994 " fill="none" id="1-to-user" style="stroke:#181818;stroke-width:1.0;"/><polygon fill="#181818" points="691.24,865.5994,681.4847,864.2449,686.4351,866.9824,683.6976,871.9327,691.24,865.5994" style="stroke:#181818;stroke-width:1.0;"/></g><!--MD5=[0ba0d8a0fd0e641c23f69743a446dfe6]
link 1 to 2--><g id="link_1_2"><path d="M376.6,764.5894 C427.18,762.6094 497.24,759.8594 560.42,757.3794 " fill="none" id="1-to-2" style="stroke:#181818;stroke-width:1.0;stroke-dasharray:7.0,7.0;"/><polygon fill="#181818" points="565.73,757.1694,556.5773,753.5323,560.734,757.3692,556.8971,761.5259,565.73,757.1694" style="stroke:#181818;stroke-width:1.0;"/><text fill="#000000" font-family="sans-serif" font-size="13" lengthAdjust="spacing" textLength="55" x="468" y="755.8545">«include»</text></g><!--MD5=[7abf4a2b7009f2b5409cc7ad6beef520]
link gos to 5--><g id="link_gos_5"><path d="M60.57,972.1594 C65.12,912.1594 82.56,797.6394 149,732.3594 C178.92,702.9594 226.6,691.8694 261.18,687.7294 " fill="none" id="gos-to-5" style="stroke:#181818;stroke-width:1.0;"/><polygon fill="#181818" points="266.18,687.1594,256.7905,684.1866,261.2111,687.7162,257.6815,692.1368,266.18,687.1594" style="stroke:#181818;stroke-width:1.0;"/></g><!--MD5=[edd9a7f694bd9a51a0f7b32f828d2281]
link 5 to 3--><g id="link_5_3"><path d="M343.65,682.9594 C402.16,679.2294 517.16,671.8994 603.57,666.3994 " fill="none" id="5-to-3" style="stroke:#181818;stroke-width:1.0;stroke-dasharray:7.0,7.0;"/><polygon fill="#181818" points="608.7,666.0694,599.4662,662.6435,603.7099,666.3839,599.9695,670.6277,608.7,666.0694" style="stroke:#181818;stroke-width:1.0;"/><text fill="#000000" font-family="sans-serif" font-size="13" lengthAdjust="spacing" textLength="55" x="468" y="668.8545">«include»</text></g><!--MD5=[ed945c86f9ea70e5d37e8e6e7fe4cca4]
link 5 to user--><g id="link_5_user"><path d="M342.91,689.4194 C372.3,694.5694 412.45,706.1894 437,732.3594 C469.92,767.4394 429.88,805.7594 467,836.3594 C530.43,888.6494 636.65,875.1694 686.54,864.9494 " fill="none" id="5-to-user" style="stroke:#181818;stroke-width:1.0;"/><polygon fill="#181818" points="691.48,863.9094,681.849,861.8493,686.5873,864.9394,683.4971,869.6777,691.48,863.9094" style="stroke:#181818;stroke-width:1.0;"/></g><!--MD5=[a7ca52e069bfa3cc2c6235b2d73051f9]
link 5 to admin--><g id="link_5_admin"><path d="M273.7,676.0194 C240.88,664.9494 188,644.3094 149,615.3594 C126.56,598.7094 105.74,575.6094 89.79,555.4994 " fill="none" id="5-to-admin" style="stroke:#181818;stroke-width:1.0;"/><polygon fill="#181818" points="86.66,551.5194,89.0782,561.0668,89.7504,555.45,95.3671,556.1222,86.66,551.5194" style="stroke:#181818;stroke-width:1.0;"/></g><!--MD5=[d5e941a2e59e3244ac8ef8e7fe3866f3]
link 5 to mened--><g id="link_5_mened"><path d="M266.14,683.9694 C220.93,682.3094 145.6,679.5394 99.32,677.8394 " fill="none" id="5-to-mened" style="stroke:#181818;stroke-width:1.0;"/><polygon fill="#181818" points="94.1,677.6494,102.9453,681.9807,99.0966,677.835,103.2423,673.9862,94.1,677.6494" style="stroke:#181818;stroke-width:1.0;"/></g><!--MD5=[ec9e4fd3722ada29f2587dc545b2f272]
link 5 to spes--><g id="link_5_spes"><path d="M269.34,678.9394 C233.84,670.5294 179.65,652.2794 149,615.3594 C148.27,614.4794 110.38,456.4394 110,455.3594 C102.4,433.9994 91.89,411.2094 82.39,392.1794 " fill="none" id="5-to-spes" style="stroke:#181818;stroke-width:1.0;"/><polygon fill="#181818" points="80,387.4194,80.4724,397.2569,82.2475,391.8858,87.6186,393.6609,80,387.4194" style="stroke:#181818;stroke-width:1.0;"/></g><!--MD5=[39d94d77f080e342f4658638432aa8cc]
link user to 6--><g id="link_user_6"><path d="M691.41,859.8494 C642.8,861.7294 527.77,858.7994 467,795.3594 C422.08,748.4694 475.96,704.3094 437,652.3594 C414.7,622.6194 375.97,604.1794 346.39,593.7394 " fill="none" id="user-to-6" style="stroke:#181818;stroke-width:1.0;"/><polygon fill="#181818" points="341.36,592.0094,348.5669,598.7221,346.0875,593.6376,351.172,591.1581,341.36,592.0094" style="stroke:#181818;stroke-width:1.0;"/></g><!--MD5=[09a6b627d5d7d1af8b9fe35283f82583]
link admin to 6--><g id="link_admin_6"><path d="M110.06,526.9494 C155.88,540.0394 222.2,558.9894 264.19,570.9894 " fill="none" id="admin-to-6" style="stroke:#181818;stroke-width:1.0;"/><polygon fill="#181818" points="269.19,572.4094,261.6352,566.0908,264.3824,571.0358,259.4374,573.783,269.19,572.4094" style="stroke:#181818;stroke-width:1.0;"/></g><!--MD5=[89c8d64a1530424dc2f2d62fee0035f3]
link mened to 6--><g id="link_mened_6"><path d="M94.1,662.8894 C140.7,645.0094 222.5,613.6294 269.03,595.7794 " fill="none" id="mened-to-6" style="stroke:#181818;stroke-width:1.0;"/><polygon fill="#181818" points="273.97,593.8794,264.135,593.3566,269.2996,595.6647,266.9915,600.8293,273.97,593.8794" style="stroke:#181818;stroke-width:1.0;"/></g><!--MD5=[4cb05d2a4d3b016025a4c70ceed5b28e]
link spes to 6--><g id="link_spes_6"><path d="M97.92,358.8694 C113.98,365.2694 131.12,375.2294 141,390.3594 C157.31,415.3394 131.28,500.3594 149,524.3594 C173.57,557.6194 219.5,571.8194 255.01,577.8694 " fill="none" id="spes-to-6" style="stroke:#181818;stroke-width:1.0;"/><polygon fill="#181818" points="260.17,578.6994,251.9272,573.3091,255.2346,577.8983,250.6454,581.2057,260.17,578.6994" style="stroke:#181818;stroke-width:1.0;"/></g><!--MD5=[ceea0f2db4e064fce9b8d7aad1b43141]
link spes to 1spesMain--><g id="link_spes_1spesMain"><path d="M97.63,319.1694 C177.57,260.8094 369.16,131.4194 554,85.3594 C717.56,44.6094 916.2,83.8794 1022.73,111.8294 " fill="none" id="spes-to-1spesMain" style="stroke:#181818;stroke-width:1.0;"/><polygon fill="#181818" points="1027.73,113.1494,1020.0407,106.9951,1022.8939,111.8797,1018.0093,114.7329,1027.73,113.1494" style="stroke:#181818;stroke-width:1.0;"/></g><!--MD5=[7ff5574a6ff893261db0548edb5442a3]
link 1spesMain to 1.1--><g id="link_1spesMain_1.1"><path d="M1186.17,152.7994 C1260.77,168.9594 1367.3,192.0294 1433.34,206.3294 " fill="none" id="1spesMain-to-1.1" style="stroke:#181818;stroke-width:1.0;"/><polygon fill="#181818" points="1438.42,207.4294,1430.4695,201.6165,1433.5331,206.372,1428.7776,209.4356,1438.42,207.4294" style="stroke:#181818;stroke-width:1.0;"/></g><!--MD5=[e55c3c039dd92912008d9cbd5034e552]
link 1spesMain to 1.2--><g id="link_1spesMain_1.2"><path d="M1219.56,134.3594 C1259.25,134.3594 1303.99,134.3594 1345.63,134.3594 " fill="none" id="1spesMain-to-1.2" style="stroke:#181818;stroke-width:1.0;"/><polygon fill="#181818" points="1350.69,134.3594,1341.69,130.3594,1345.69,134.3594,1341.69,138.3594,1350.69,134.3594" style="stroke:#181818;stroke-width:1.0;"/></g><!--MD5=[10bd236bd4f37b6587755d5e063ed4f8]
link 1.1 to 1.1.1--><g id="link_1.1_1.1.1"><path d="M1571.24,219.3594 C1647.98,219.3594 1766.72,219.3594 1848.4,219.3594 " fill="none" id="1.1-to-1.1.1" style="stroke:#181818;stroke-width:1.0;"/><polygon fill="#181818" points="1853.73,219.3594,1844.73,215.3594,1848.73,219.3594,1844.73,223.3594,1853.73,219.3594" style="stroke:#181818;stroke-width:1.0;"/></g><!--MD5=[ce45cc02af7cfb95e6b946d42b6e58c6]
link 1.1.1 to 1.1.1.1--><g id="link_1.1.1_1.1.1.1"><path d="M2003.79,232.5494 C2084.19,249.4294 2227.25,279.4694 2345.53,304.3094 " fill="none" id="1.1.1-to-1.1.1.1" style="stroke:#181818;stroke-width:1.0;"/><polygon fill="#181818" points="2350.44,305.3394,2342.4376,299.5981,2345.5438,304.3259,2340.816,307.432,2350.44,305.3394" style="stroke:#181818;stroke-width:1.0;"/></g><!--MD5=[c55a6ba8ddd90bfe57e8a133a7c09435]
link 1.1.1 to 1.1.1.2--><g id="link_1.1.1_1.1.1.2"><path d="M2026.01,219.3594 C2117.83,219.3594 2266.26,219.3594 2380.23,219.3594 " fill="none" id="1.1.1-to-1.1.1.2" style="stroke:#181818;stroke-width:1.0;stroke-dasharray:7.0,7.0;"/><polygon fill="#181818" points="2385.29,219.3594,2376.29,215.3594,2380.29,219.3594,2376.29,223.3594,2385.29,219.3594" style="stroke:#181818;stroke-width:1.0;"/><text fill="#000000" font-family="sans-serif" font-size="13" lengthAdjust="spacing" textLength="55" x="2185" y="215.8545">«include»</text></g><!--MD5=[911623f4318ea05459bae364fab4d4ef]
link 1.1.1.1 to 1.1.1.1.1--><g id="link_1.1.1.1_1.1.1.1.1"><path d="M2696.97,391.7094 C2735.99,406.1594 2777.02,423.7994 2813,444.3594 C2871.4,477.7394 2869.43,511.1094 2930,540.3594 C2962.1,555.8594 2998.41,567.1794 3033.6,575.4394 " fill="none" id="1.1.1.1-to-1.1.1.1.1" style="stroke:#181818;stroke-width:1.0;"/><polygon fill="#181818" points="3038.78,576.6294,3030.8985,570.7233,3033.9059,575.5145,3029.1147,578.5218,3038.78,576.6294" style="stroke:#181818;stroke-width:1.0;"/></g><!--MD5=[bd9a0aef9408e781acf0ebafc016abfd]
link 1.1.1.1 to 1.1.1.1.2--><g id="link_1.1.1.1_1.1.1.1.2"><path d="M2744.08,383.0394 C2822.75,397.7894 2912.83,414.6694 2991.63,429.4294 " fill="none" id="1.1.1.1-to-1.1.1.1.2" style="stroke:#181818;stroke-width:1.0;"/><polygon fill="#181818" points="2996.8,430.3994,2988.6992,424.7979,2991.8869,429.471,2987.2138,432.6588,2996.8,430.3994" style="stroke:#181818;stroke-width:1.0;"/></g><!--MD5=[bb057be60024e6f85c6757e38a0405c9]
link 1.1.1.1 to 1.1.1.1.3--><g id="link_1.1.1.1_1.1.1.1.3"><path d="M2813.43,345.3594 C2893.44,345.3594 2978.02,345.3594 3047.07,345.3594 " fill="none" id="1.1.1.1-to-1.1.1.1.3" style="stroke:#181818;stroke-width:1.0;"/><polygon fill="#181818" points="3052.44,345.3594,3043.44,341.3594,3047.44,345.3594,3043.44,349.3594,3052.44,345.3594" style="stroke:#181818;stroke-width:1.0;"/></g><!--MD5=[4c5ff237d3234c0025b1e8240f2fc7af]
link 1.1.1.1 to 1.1.1.1.4--><g id="link_1.1.1.1_1.1.1.1.4"><path d="M2764.76,312.9994 C2870.44,297.5794 2992.4,279.7794 3079.25,267.1094 " fill="none" id="1.1.1.1-to-1.1.1.1.4" style="stroke:#181818;stroke-width:1.0;stroke-dasharray:7.0,7.0;"/><polygon fill="#181818" points="3084.4,266.3494,3074.9215,263.6738,3079.4511,267.0625,3076.0625,271.5921,3084.4,266.3494" style="stroke:#181818;stroke-width:1.0;"/><text fill="#000000" font-family="sans-serif" font-size="13" lengthAdjust="spacing" textLength="55" x="2844" y="291.8545">«include»</text></g><!--MD5=[290fc99223442515d915aa4dea925a52]
link 1.1.1.1.4 to 1.1.1.1.4.1--><g id="link_1.1.1.1.4_1.1.1.1.4.1"><path d="M3327.67,250.3594 C3386.31,250.3594 3455.58,250.3594 3515.82,250.3594 " fill="none" id="1.1.1.1.4-to-1.1.1.1.4.1" style="stroke:#181818;stroke-width:1.0;"/><polygon fill="#181818" points="3520.88,250.3594,3511.88,246.3594,3515.88,250.3594,3511.88,254.3594,3520.88,250.3594" style="stroke:#181818;stroke-width:1.0;"/></g><!--MD5=[537451cb5a80537bc64fde6cab77d4ba]
link 1.1.1.1.4.1 to 1.1.1.1.4.1.1--><g id="link_1.1.1.1.4.1_1.1.1.1.4.1.1"><path d="M3756.39,273.7594 C3828.58,292.0394 3931.25,318.0394 4020.16,340.5494 " fill="none" id="1.1.1.1.4.1-to-1.1.1.1.4.1.1" style="stroke:#181818;stroke-width:1.0;stroke-dasharray:7.0,7.0;"/><polygon fill="#181818" points="4025.18,341.8194,4017.4399,335.7291,4020.3335,340.5899,4015.4727,343.4835,4025.18,341.8194" style="stroke:#181818;stroke-width:1.0;"/><text fill="#000000" font-family="sans-serif" font-size="13" lengthAdjust="spacing" textLength="55" x="3836" y="291.8545">«include»</text></g><!--MD5=[5955aca01caaeac236b08555ba64da53]
link 1.1.1.1.4.1 to 1.1.1.1.4.1.2--><g id="link_1.1.1.1.4.1_1.1.1.1.4.1.2"><path d="M3805.08,250.3594 C3864.05,250.3594 3933.75,250.3594 3998.31,250.3594 " fill="none" id="1.1.1.1.4.1-to-1.1.1.1.4.1.2" style="stroke:#181818;stroke-width:1.0;stroke-dasharray:7.0,7.0;"/><polygon fill="#181818" points="4003.34,250.3594,3994.34,246.3594,3998.34,250.3594,3994.34,254.3594,4003.34,250.3594" style="stroke:#181818;stroke-width:1.0;"/><text fill="#000000" font-family="sans-serif" font-size="13" lengthAdjust="spacing" textLength="55" x="3836" y="246.8545">«include»</text></g><!--MD5=[535a0795900262343f8f190ebb11c6c3]
link 1.1.1.1.4.1 to 1.1.1.1.4.1.3--><g id="link_1.1.1.1.4.1_1.1.1.1.4.1.3"><path d="M3757.19,227.1294 C3806.13,215.2294 3867.16,200.8694 3922,189.3594 C3971.06,179.0594 4025.14,168.8494 4072.76,160.2294 " fill="none" id="1.1.1.1.4.1-to-1.1.1.1.4.1.3" style="stroke:#181818;stroke-width:1.0;stroke-dasharray:7.0,7.0;"/><polygon fill="#181818" points="4077.94,159.2994,4068.3744,156.9543,4073.0188,160.1838,4069.7894,164.8282,4077.94,159.2994" style="stroke:#181818;stroke-width:1.0;"/><text fill="#000000" font-family="sans-serif" font-size="13" lengthAdjust="spacing" textLength="55" x="3836" y="193.8545">«include»</text></g><!--MD5=[56b27284e5e1205120cc5bf620f8d114]
link mened to 2menedMain--><g id="link_mened_2menedMain"><path d="M78.2,715.5994 C93.7,743.3694 118,779.4294 149,801.3594 C416.01,990.2294 582.11,1058.8794 876,915.3594 C987.11,861.0994 1058.98,721.7794 1086.43,659.8394 " fill="none" id="mened-to-2menedMain" style="stroke:#181818;stroke-width:1.0;"/><polygon fill="#181818" points="1088.48,655.1594,1081.1982,661.7908,1086.4692,659.7372,1088.5228,665.0081,1088.48,655.1594" style="stroke:#181818;stroke-width:1.0;"/></g><!--MD5=[d81d8b145e6358ce29a38367e8a7058d]
link 2menedMain to 2mened--><g id="link_2menedMain_2mened"><path d="M1215.58,629.3594 C1275.44,629.3594 1347.62,629.3594 1403.43,629.3594 " fill="none" id="2menedMain-to-2mened" style="stroke:#181818;stroke-width:1.0;"/><polygon fill="#181818" points="1408.43,629.3594,1399.43,625.3594,1403.43,629.3594,1399.43,633.3594,1408.43,629.3594" style="stroke:#181818;stroke-width:1.0;"/></g><!--MD5=[2ee09a6aab8801a0f5d21db919d883c0]
link 2mened to 2.1--><g id="link_2mened_2.1"><path d="M1580.75,629.3594 C1620.89,629.3594 1670.79,629.3594 1720.48,629.3594 " fill="none" id="2mened-to-2.1" style="stroke:#181818;stroke-width:1.0;"/><polygon fill="#181818" points="1725.6,629.3594,1716.6,625.3594,1720.6,629.3594,1716.6,633.3594,1725.6,629.3594" style="stroke:#181818;stroke-width:1.0;"/></g><!--MD5=[db046170b6a98891e699a324a4996983]
link 2.1 to 2.1.1--><g id="link_2.1_2.1.1"><path d="M2152.12,635.6894 C2217.94,637.6694 2290.04,639.8294 2354.08,641.7494 " fill="none" id="2.1-to-2.1.1" style="stroke:#181818;stroke-width:1.0;"/><polygon fill="#181818" points="2359.47,641.9094,2350.5879,637.654,2354.472,641.7666,2350.3594,645.6507,2359.47,641.9094" style="stroke:#181818;stroke-width:1.0;"/></g><!--MD5=[ce16d238ab8b85d6ba018f81ec2e2cd6]
link 2.1 to 2.1.2--><g id="link_2.1_2.1.2"><path d="M2100.61,599.5694 C2173.64,585.9294 2261.01,569.6194 2338.61,555.1394 " fill="none" id="2.1-to-2.1.2" style="stroke:#181818;stroke-width:1.0;"/><polygon fill="#181818" points="2343.7,554.1894,2334.1202,551.903,2338.7843,555.1039,2335.5835,559.7681,2343.7,554.1894" style="stroke:#181818;stroke-width:1.0;"/></g><!--MD5=[b7ed60931596517704bc9bd9d314f3d7]
link user to 4clientMain--><g id="link_user_4clientMain"><path d="M738.62,856.5494 C773.21,852.5494 839.13,839.9094 876,800.3594 C943.44,728.0194 888.89,672.7694 937,586.3594 C971.42,524.5394 1031.18,466.6294 1067.7,434.4994 " fill="none" id="user-to-4clientMain" style="stroke:#181818;stroke-width:1.0;"/><polygon fill="#181818" points="1071.6,431.0894,1062.1928,434.0056,1067.8371,434.3819,1067.4608,440.0262,1071.6,431.0894" style="stroke:#181818;stroke-width:1.0;"/></g><!--MD5=[28c026597135bf392d3a088aad15d9fe]
link 4clientMain to 4.1--><g id="link_4clientMain_4.1"><path d="M1205.67,408.3594 C1248.07,408.3594 1297.81,408.3594 1343.92,408.3594 " fill="none" id="4clientMain-to-4.1" style="stroke:#181818;stroke-width:1.0;"/><polygon fill="#181818" points="1348.94,408.3594,1339.94,404.3594,1343.94,408.3594,1339.94,412.3594,1348.94,408.3594" style="stroke:#181818;stroke-width:1.0;"/></g><!--MD5=[06ea2dd624033588619579e74867bffa]
link 4clientMain to 4.2--><g id="link_4clientMain_4.2"><path d="M1172.53,391.2294 C1237.64,375.6394 1334.01,352.5594 1404.15,335.7594 " fill="none" id="4clientMain-to-4.2" style="stroke:#181818;stroke-width:1.0;"/><polygon fill="#181818" points="1409.16,334.5594,1399.4792,332.7476,1404.2954,335.7149,1401.3281,340.531,1409.16,334.5594" style="stroke:#181818;stroke-width:1.0;"/></g><!--MD5=[d95e4db18fe02fc157331096f6cc9f39]
link 4clientMain to 4.3--><g id="link_4clientMain_4.3"><path d="M1168.92,426.1794 C1227.2,441.4794 1312.37,463.8294 1380.84,481.7994 " fill="none" id="4clientMain-to-4.3" style="stroke:#181818;stroke-width:1.0;"/><polygon fill="#181818" points="1385.74,483.0794,1378.0507,476.9251,1380.9039,481.8097,1376.0193,484.6629,1385.74,483.0794" style="stroke:#181818;stroke-width:1.0;"/></g><!--MD5=[2bc4c54d5095820a13adbb813b479772]
link 4.2 to 4.2.1--><g id="link_4.2_4.2.1"><path d="M1620.22,314.3594 C1688.25,314.3594 1771.46,314.3594 1835.8,314.3594 " fill="none" id="4.2-to-4.2.1" style="stroke:#181818;stroke-width:1.0;"/><polygon fill="#181818" points="1841.19,314.3594,1832.19,310.3594,1836.19,314.3594,1832.19,318.3594,1841.19,314.3594" style="stroke:#181818;stroke-width:1.0;"/></g><!--MD5=[c315cd63dbaa7c7f86c6f4924ee522f7]
link admin to 3adminMain--><g id="link_admin_3adminMain"><path d="M110.06,505.2694 C132.77,502.1194 160.51,498.2694 187.83,494.4794 " fill="none" id="admin-to-3adminMain" style="stroke:#181818;stroke-width:1.0;"/><polygon fill="#181818" points="192.93,493.7694,183.458,491.0709,187.9794,494.4705,184.5798,498.9918,192.93,493.7694" style="stroke:#181818;stroke-width:1.0;"/></g><!--MD5=[80407c59af1b77803fb6273e267d54e5]
link 3adminMain to 3.1--><g id="link_3adminMain_3.1"><path d="M355.14,451.3294 C404.32,425.1094 482.73,385.5394 554,359.3594 C578.64,350.3094 606.08,342.3694 631.19,335.8894 " fill="none" id="3adminMain-to-3.1" style="stroke:#181818;stroke-width:1.0;"/><polygon fill="#181818" points="636.17,334.6194,626.4627,332.9553,631.3235,335.8489,628.4299,340.7096,636.17,334.6194" style="stroke:#181818;stroke-width:1.0;"/></g><!--MD5=[de24b42cb7b371262193e659802373f9]
link 3adminMain to 3.2--><g id="link_3adminMain_3.2"><path d="M398.84,498.8394 C461.4,512.6394 544.05,530.8694 609.02,545.1994 " fill="none" id="3adminMain-to-3.2" style="stroke:#181818;stroke-width:1.0;"/><polygon fill="#181818" points="614.06,546.3094,606.1257,540.4744,609.1761,545.2383,604.4121,548.2887,614.06,546.3094" style="stroke:#181818;stroke-width:1.0;"/></g><!--MD5=[c965f21ca71eb431ea39a548cf479c52]
link 3adminMain to 3.3--><g id="link_3adminMain_3.3"><path d="M437.06,478.3594 C491.13,478.3594 553.07,478.3594 604.64,478.3594 " fill="none" id="3adminMain-to-3.3" style="stroke:#181818;stroke-width:1.0;"/><polygon fill="#181818" points="609.91,478.3594,600.91,474.3594,604.91,478.3594,600.91,482.3594,609.91,478.3594" style="stroke:#181818;stroke-width:1.0;"/></g><!--MD5=[c9cf16980226147e7df8fcf0295ebb7b]
link 3adminMain to 3.4--><g id="link_3adminMain_3.4"><path d="M403.99,459.1494 C475.68,445.0894 571.56,426.2894 637.62,413.3394 " fill="none" id="3adminMain-to-3.4" style="stroke:#181818;stroke-width:1.0;"/><polygon fill="#181818" points="642.72,412.3394,633.1152,410.1606,637.8149,413.309,634.6665,418.0087,642.72,412.3394" style="stroke:#181818;stroke-width:1.0;"/></g><!--MD5=[e964553403188765867fcc278cc8317c]
link 3.1 to 1spesMain--><g id="link_3.1_1spesMain"><path d="M810.54,304.9494 C833.49,298.7194 856.9,289.3794 876,275.3594 C917.06,245.2294 896.07,208.6594 937,178.3594 C954.02,165.7594 974.44,156.7594 994.94,150.3494 " fill="none" id="3.1-to-1spesMain" style="stroke:#181818;stroke-width:1.0;"/><polygon fill="#181818" points="999.87,148.8494,990.0951,147.6443,995.0868,150.3058,992.4253,155.2974,999.87,148.8494" style="stroke:#181818;stroke-width:1.0;"/></g><!--MD5=[72456945d8227e18f781484f873d9744]
link 3.3 to 2menedMain--><g id="link_3.3_2menedMain"><path d="M791.87,494.3894 C818.81,500.9694 849.11,509.3994 876,519.3594 C939.41,542.8294 1008.7,578.7594 1052.94,603.1094 " fill="none" id="3.3-to-2menedMain" style="stroke:#181818;stroke-width:1.0;"/><polygon fill="#181818" points="1057.41,605.5794,1051.4655,597.7268,1053.0332,603.1621,1047.5979,604.7298,1057.41,605.5794" style="stroke:#181818;stroke-width:1.0;"/></g><!--MD5=[0d2af552c4d9ae6d6242c4c97b774b85]
link 3.4 to 4clientMain--><g id="link_3.4_4clientMain"><path d="M809.69,400.8094 C864.19,402.2294 933.13,404.0294 990.04,405.5194 " fill="none" id="3.4-to-4clientMain" style="stroke:#181818;stroke-width:1.0;"/><polygon fill="#181818" points="995.16,405.6494,986.2779,401.394,990.162,405.5066,986.0494,409.3907,995.16,405.6494" style="stroke:#181818;stroke-width:1.0;"/></g><!--MD5=[c246e7e7cc90df5c3eaf2c2eadd596de]
link mainPage to mainPage.1--><g id="link_mainPage_mainPage.1"><path d="M348.61,349.4094 C397.7,330.1794 480.99,298.5094 554,275.3594 C579.32,267.3294 607.19,259.4994 632.48,252.7694 " fill="none" id="mainPage-to-mainPage.1" style="stroke:#181818;stroke-width:1.0;"/><polygon fill="#181818" points="637.5,251.4394,627.7738,249.8898,632.6684,252.7259,629.8323,257.6205,637.5,251.4394" style="stroke:#181818;stroke-width:1.0;"/></g><!--MD5=[e9493371f326a9636cc920bffabc8f69]
link mainPage to mainPage.2--><g id="link_mainPage_mainPage.2"><path d="M327.75,347.2794 C369.16,311.7894 463.32,235.0894 554,189.3594 C571.55,180.5094 590.93,172.7194 609.97,166.0394 " fill="none" id="mainPage-to-mainPage.2" style="stroke:#181818;stroke-width:1.0;"/><polygon fill="#181818" points="614.8,164.3694,604.988,163.5181,610.0725,165.9976,607.5931,171.0821,614.8,164.3694" style="stroke:#181818;stroke-width:1.0;"/></g><!--MD5=[e25fd2606ad07b77e0f678e728079433]
link mainPage.2 to mainPage.2.1--><g id="link_mainPage.2_mainPage.2.1"><path d="M811.17,165.1894 C860.1,179.4994 920.38,197.1294 973.11,212.5494 " fill="none" id="mainPage.2-to-mainPage.2.1" style="stroke:#181818;stroke-width:1.0;"/><polygon fill="#181818" points="978.19,214.0294,970.67,207.6694,973.39,212.6294,968.43,215.3494,978.19,214.0294" style="stroke:#181818;stroke-width:1.0;"/></g><!--MD5=[612b4833c7b1f8a70487c6303d0b0f73]
link user to mainPage--><g id="link_user_mainPage"><path d="M691.24,852.2294 C635.24,836.6494 493.41,793.9294 467,754.3594 C386.96,634.4394 518.57,550.2394 437,431.3594 C420.84,407.8094 393.58,392.4094 368.11,382.5394 " fill="none" id="user-to-mainPage" style="stroke:#181818;stroke-width:1.0;"/><polygon fill="#181818" points="363.37,380.7594,370.3855,387.6719,368.0499,382.5197,373.202,380.1841,363.37,380.7594" style="stroke:#181818;stroke-width:1.0;"/></g><!--MD5=[ed7a9cdc2eda9e97a3e804a43c63a5e3]
link admin to mainPage--><g id="link_admin_mainPage"><path d="M96.98,472.9794 C112.22,458.6294 130.53,443.0594 149,431.3594 C180.35,411.4894 218.81,395.3194 249.58,384.0794 " fill="none" id="admin-to-mainPage" style="stroke:#181818;stroke-width:1.0;"/><polygon fill="#181818" points="254.45,382.3094,244.6261,381.6091,249.7481,384.0101,247.3472,389.1321,254.45,382.3094" style="stroke:#181818;stroke-width:1.0;"/></g><!--MD5=[1d6ad0c626d983335a285bbd1d9be152]
link mened to mainPage--><g id="link_mened_mainPage"><path d="M79.36,637.2794 C89.4,617.0494 101.22,591.7494 110,568.3594 C115.56,553.5394 138.5,443.1994 149,431.3594 C171.42,406.0794 205.28,390.3694 235.63,380.7394 " fill="none" id="mened-to-mainPage" style="stroke:#181818;stroke-width:1.0;"/><polygon fill="#181818" points="240.47,379.2494,230.6919,378.071,235.6908,380.7188,233.043,385.7177,240.47,379.2494" style="stroke:#181818;stroke-width:1.0;"/></g><!--MD5=[3531953db45d0c08d51dbbe174a17207]
link spes to mainPage--><g id="link_spes_mainPage"><path d="M97.82,348.0994 C111.48,348.2094 126.93,348.5394 141,349.3594 C168.03,350.9294 197.48,353.6794 223.83,356.5194 " fill="none" id="spes-to-mainPage" style="stroke:#181818;stroke-width:1.0;"/><polygon fill="#181818" points="229.05,357.0894,220.5374,352.1361,224.0795,356.5466,219.669,360.0888,229.05,357.0894" style="stroke:#181818;stroke-width:1.0;"/></g><!--MD5=[dfac33887f76a9bb4f8b39322e4915ba]
@startuml Example
title Автоматизированное рабочее место стоматолога
left to right direction
Actor "Гость" as gos
Actor "Клиент" as user
Actor "Администратор" as admin
Actor "Менеджер " as mened
Actor "Стоматолог" as spes
rectangle "Приложение" {
    1 as("Регистрация")
    2 as("Указание личной информации в форме")
    3 as("Указание логина и пароля")
    5 as("вход")
    6 as("выход")

    gos - -> 1
    1 - -> user
    1 ..> 2:<<include>>

    gos - -> 5
    5 ..>3:<<include>>
    5- ->user
    5- ->admin
    5- ->mened
    5- ->spes

    user- ->6
    admin- ->6
    mened- ->6
    spes- ->6


    1spesMain as ("личный кабинет стоматолога")
    1.1 as("Дневник врача")
    1.2 as ("личная информация,\n возможность редактирования")
    1.1.1 as("список пациентов")
    1.1.1.1 as ("информация о пациенте:\n личные данные, текущие записи, прошлые посещения, \nзубная формула, данные об аллергических заболеваниях пациента")
    1.1.1.2 as("поиск пациентов по дате посещения")
    1.1.1.2 as("создание выписки из медицинской карты")
    1.1.1.1.1 as("редактирование личной информации о пациенте")
    1.1.1.1.2 as("Возможность записи к врачу,\n либо формирования направлений на исследования\n и дополнительные врачебные консультации узких специалистов")
    1.1.1.1.3 as("Возможность отмены записи к врачу")
    1.1.1.1.4 as("список всех посещений пациента")
    1.1.1.1.4.1 as("определенное посещение пациента")
    1.1.1.1.4.1.1 as ("Возможность фиксирования результатов осмотра пациента и лечения:\n диагноз, данные о жалобах, об анамнезе результаты осмотра\n, историю проведенных исследований УЗИ, и т.п., назначения пациенту")
    1.1.1.1.4.1.2 as("данные о статусе, трудозатратах выполненной работы")
    1.1.1.1.4.1.3 as("создание мед. карты в формате Word/Excel")

    spes- ->1spesMain
    1spesMain - -> 1.1
    1spesMain - -> 1.2
    1.1- ->1.1.1
    1.1.1- ->1.1.1.1
    1.1.1 ..>1.1.1.2:<<include>>
    1.1.1.1- ->1.1.1.1.1
    1.1.1.1- ->1.1.1.1.2
    1.1.1.1- ->1.1.1.1.3
    1.1.1.1 ..> 1.1.1.1.4:<<include>>
    1.1.1.1.4 - -> 1.1.1.1.4.1
    1.1.1.1.4.1 ..>1.1.1.1.4.1.1:<<include>>
    1.1.1.1.4.1 ..>1.1.1.1.4.1.2:<<include>>
    1.1.1.1.4.1 ..>1.1.1.1.4.1.3:<<include>>



    2menedMain as ("личный кабинет менеджера")
    2mened as ("список пациентов")
    2.1 as ("информация о пациенте:\n личные данные, текущие записи, прошлые посещения")
    2.1.1 as("редактирование личной информации о пациенте")
    2.1.2 as("Возможность записи к врачу,\n либо формирования направлений на исследования\n и дополнительные врачебные консультации узких специалистов")

    mened - -> 2menedMain
    2menedMain - -> 2mened
    2mened - -> 2.1
    2.1 - -> 2.1.1
    2.1 - -> 2.1.2



    4clientMain as ("личный кабинет клиента")
    4.1 as("редактирование личной информации")
    4.2 as("все текущие и прошлые записи")
    4.2.1 as("информация о записи")
    4.3 as("последняя выписка медицинской карты,\n если есть, возможность скачать")
    user - -> 4clientMain
    4clientMain - -> 4.1
    4clientMain - -> 4.2
    4clientMain - -> 4.3
    4.2 - -> 4.2.1



    3adminMain as ("личный кабинет администратора")
    3.1 as ("список всех специалистов")
    3.2 as ("личная информация,\n возможность редактирования")
    3.3 as ("список всех менеджеров")
    3.4 as ("список всех клиентов")

    admin - -> 3adminMain
    3adminMain - -> 3.1
    3adminMain - -> 3.2
    3adminMain - -> 3.3
    3adminMain - -> 3.4
    3.1 - -> 1spesMain
    3.3 - -> 2menedMain
    3.4 - -> 4clientMain


    mainPage as ("главная страница")
    mainPage.1 as ("информация о поликлинике")
    mainPage.2 as ("список стоматологов для записи на прием")
    mainPage.2.1 as ("информация о стоматологе,\n все свободные и занятые даты,\n возможность записи,\n если пользователь клиент")

    mainPage - -> mainPage.1
    mainPage - -> mainPage.2
    mainPage.2 - -> mainPage.2.1

    user - -> mainPage
    admin - -> mainPage
    mened - -> mainPage
    spes - -> mainPage
}
@enduml

PlantUML version 1.2022.7(Mon Aug 22 22:01:30 YEKT 2022)
(GPL source distribution)
Java Runtime: Java(TM) SE Runtime Environment
JVM: Java HotSpot(TM) 64-Bit Server VM
Default Encoding: Cp1251
Language: ru
Country: RU
--></g></svg>